<svg xmlns="http://www.w3.org/2000/svg" version="1.1" xmlns:xlink="http://www.w3.org/1999/xlink" xmlns:svgjs="http://svgjs.com/svgjs" width="1440" height="560" preserveAspectRatio="none" viewBox="0 0 1440 560"><g mask="url(&quot;#SvgjsMask1004&quot;)" fill="none"><rect width="1440" height="560" x="0" y="0" fill="#1e3266"></rect><path d="M1488 560L0 560 L0 335.63Q48.76 312.39, 72 361.15Q78.9 296.05, 144 302.96Q193.29 232.25, 264 281.53Q340.54 238.06, 384 314.6Q428.31 286.91, 456 331.22Q514.11 317.33, 528 375.43Q530.63 306.06, 600 308.69Q665.25 253.94, 720 319.18Q791.43 270.61, 840 342.04Q870.76 252.81, 960 283.57Q1004.01 255.58, 1032 299.59Q1079.62 275.2, 1104 322.82Q1166.99 313.81, 1176 376.81Q1202.71 331.52, 1248 358.23Q1274.97 265.21, 1368 292.18Q1443.59 247.76, 1488 323.35z" fill="#182f5d"></path><path d="M1560 560L0 560 L0 442.12Q41.79 363.91, 120 405.71Q166.47 332.18, 240 378.65Q289.13 307.78, 360 356.91Q443.44 320.36, 480 403.8Q528.75 380.56, 552 429.31Q574.87 332.18, 672 355.05Q716.95 328, 744 372.96Q818.52 327.48, 864 402Q940.61 358.61, 984 435.22Q996.93 376.15, 1056 389.08Q1083.12 344.19, 1128 371.31Q1153.91 325.23, 1200 351.14Q1294.73 325.88, 1320 420.61Q1350.36 330.97, 1440 361.33Q1511.03 312.36, 1560 383.39z" fill="#25467d"></path><path d="M1464 560L0 560 L0 442.44Q42.45 412.89, 72 455.34Q133.49 444.82, 144 506.31Q145.97 436.28, 216 438.26Q311.23 413.49, 336 508.72Q367.76 420.49, 456 452.25Q501.15 425.4, 528 470.56Q541.77 412.33, 600 426.1Q665.78 371.88, 720 437.67Q785.17 430.84, 792 496Q836.81 468.81, 864 513.61Q880.83 458.44, 936 475.28Q977.54 444.82, 1008 486.36Q1082.24 440.6, 1128 514.84Q1141.09 455.93, 1200 469.01Q1243.99 441, 1272 484.98Q1316.58 409.56, 1392 454.14Q1434.56 424.69, 1464 467.25z" fill="#356cb1"></path><path d="M1560 560L0 560 L0 522.89Q22.98 473.87, 72 496.85Q156.65 461.5, 192 546.15Q271.15 505.3, 312 584.44Q313.05 513.49, 384 514.54Q435.7 446.24, 504 497.94Q570.63 492.57, 576 559.19Q629.23 492.42, 696 545.66Q732.94 462.6, 816 499.53Q891.55 455.08, 936 530.63Q1010.76 485.39, 1056 560.15Q1104.27 536.42, 1128 584.69Q1157.66 542.35, 1200 572.01Q1224.17 476.18, 1320 500.36Q1399.71 460.07, 1440 539.78Q1486.35 466.13, 1560 512.48z" fill="white"></path></g><defs><mask id="SvgjsMask1004"><rect width="1440" height="560" fill="#ffffff"></rect></mask></defs></svg>